<?xml version="1.0" encoding="UTF-8"?>
<!DOCTYPE svg PUBLIC "-//W3C//DTD SVG 1.1//EN" "http://www.w3.org/Graphics/SVG/1.1/DTD/svg11.dtd">
<!-- Creator: CorelDRAW -->
<svg xmlns="http://www.w3.org/2000/svg" xml:space="preserve" width="217px" height="118px" version="1.1" style="shape-rendering:geometricPrecision; text-rendering:geometricPrecision; image-rendering:optimizeQuality; fill-rule:evenodd; clip-rule:evenodd"
viewBox="0 0 217 118.12"
 xmlns:xlink="http://www.w3.org/1999/xlink"
 xmlns:xodm="http://www.corel.com/coreldraw/odm/2003">
 <defs>
  <style type="text/css">
   <![CDATA[
    .str1 {stroke:black;stroke-width:0.59;stroke-miterlimit:2.61313}
    .str0 {stroke:#373435;stroke-width:0.62;stroke-miterlimit:2.61313}
    .fil0 {fill:#6B809B}
    .fil1 {fill:#CCCCCC}
   ]]>
  </style>
 </defs>
 <g id="Layer_x0020_1">
  <metadata id="CorelCorpID_0Corel-Layer"/>
  <g id="_2920928624048">
   <path class="fil0 str0" d="M151.89 47.87l-13.74 14.09 13.74 13.07 -19.4 3.32 3.44 18.64 -17.65 -8.71 -8.18 17.1 -9.15 -17.42 -16.67 9.03 2.83 -19.47 -18.79 -2.49 13.74 -14.09 -13.74 -13.07 19.39 -3.32 -3.43 -18.64 17.64 8.71 8.18 -17.11 9.16 17.42 16.67 -9.02 -2.84 19.47 18.8 2.49zm15.52 12.52c0,-31.14 -25.25,-56.39 -56.39,-56.39 -31.15,0 -56.4,25.25 -56.4,56.39 0,31.15 25.25,56.4 56.4,56.4 31.14,0 56.39,-25.25 56.39,-56.4z"/>
   <g>
    <g>
     <g>
      <rect class="fil1 str1" x="86.97" y="52.53" width="3.53" height="13.97"/>
      <rect class="fil1 str1" x="90.5" y="49.95" width="3.53" height="18.82"/>
      <rect class="fil1 str1" x="83.44" y="54.73" width="3.53" height="9.71"/>
     </g>
     <g>
      <rect class="fil1 str1" x="129.62" y="52.53" width="3.53" height="13.97"/>
      <rect class="fil1 str1" x="126.09" y="49.95" width="3.53" height="18.82"/>
      <rect class="fil1 str1" x="133.15" y="54.73" width="3.53" height="9.71"/>
     </g>
     <rect class="fil1 str1" x="94.03" y="56.5" width="32.06" height="4.85"/>
    </g>
    <polygon class="fil1 str0" points="126.09,61.35 126.09,56.5 94.03,56.5 94.03,61.35 "/>
    <polygon class="fil1 str0" points="129.62,52.53 129.62,66.5 133.15,66.5 133.15,64.44 133.15,54.73 133.15,52.53 "/>
    <polygon class="fil1 str0" points="129.62,66.5 129.62,52.53 129.62,49.95 126.09,49.95 126.09,56.5 126.09,61.35 126.09,68.78 129.62,68.78 "/>
    <polygon class="fil1 str0" points="133.15,54.73 133.15,64.44 136.68,64.44 136.68,54.73 "/>
    <polygon class="fil1 str0" points="94.03,61.35 94.03,56.5 94.03,49.95 90.5,49.95 90.5,52.53 90.5,66.5 90.5,68.78 94.03,68.78 "/>
    <polygon class="fil1 str0" points="90.5,66.5 90.5,52.53 86.97,52.53 86.97,54.73 86.97,64.44 86.97,66.5 "/>
    <polygon class="fil1 str0" points="86.97,64.44 86.97,54.73 83.44,54.73 83.44,64.44 "/>
   </g>
  </g>
 </g>
</svg>
